<?xml version="1.0" encoding="UTF-8"?>
<svg version="1.1" xmlns="http://www.w3.org/2000/svg" width="1360" height="104">
<path d="M0 0 C448.8 0 897.6 0 1360 0 C1360 34.32 1360 68.64 1360 104 C911.2 104 462.4 104 0 104 C0 69.68 0 35.36 0 0 Z " fill="#0F0D0E" transform="translate(0,0)"/>
<path d="M0 0 C4.87741211 3.53812272 9.13026915 7.89607662 10.625 13.875 C11.39538979 20.71369092 10.79676771 26.26629008 6.625 31.875 C2.0186875 36.74560912 -1.40818809 39.53370871 -8.14453125 40.11328125 C-14.88002661 40.27756162 -18.99424991 40.0478266 -24.375 35.875 C-29.72082747 30.52917253 -31.93827139 25.31423779 -32.875 17.9375 C-32.59500119 11.99919201 -29.65884291 7.03673646 -25.40234375 3.0078125 C-18.18116424 -2.63415579 -8.35604468 -4.95643715 0 0 Z " fill="#AEAA98" transform="translate(1227.375,35.125)"/>
<path d="M0 0 C3.96761093 0.42750287 7.43358153 0.55948464 11.375 -0.0625 C15.07411373 -0.60628986 15.07411373 -0.60628986 17.9375 1 C18.411875 1.515625 18.88625 2.03125 19.375 2.5625 C17.5 6.4375 17.5 6.4375 16.375 7.5625 C16.11480166 11.46547512 16.17330083 14.25995125 18.375 17.5625 C19.035 17.8925 19.695 18.2225 20.375 18.5625 C20.02408999 22.53948007 18.66230291 25.24390807 16.04907227 28.26611328 C12.7484389 30.8220945 8.95858796 30.53240431 4.9375 30.4375 C4.08164307 30.4267041 3.22578613 30.4159082 2.34399414 30.40478516 C-1.4079196 30.22112758 -3.92786492 30.00553911 -7.1328125 27.96875 C-8.72976482 25.88227963 -9.70939948 24.01898919 -10.625 21.5625 C-11.07875 20.5725 -11.5325 19.5825 -12 18.5625 C-13.14400867 13.07125841 -13.52261368 9.23391858 -10.8125 4.1875 C-7.22563983 -0.11673221 -5.37181425 -0.67321186 0 0 Z " fill="#B0AC9A" transform="translate(67.625,41.4375)"/>
<path d="M0 0 C3.74973906 -0.11622939 7.49901464 -0.1872595 11.25 -0.25 C12.31347656 -0.28351562 13.37695312 -0.31703125 14.47265625 -0.3515625 C15.49746094 -0.36445312 16.52226563 -0.37734375 17.578125 -0.390625 C18.99206543 -0.4220459 18.99206543 -0.4220459 20.43457031 -0.45410156 C23.78958892 0.13976355 24.97356498 1.30566732 27 4 C26.85146936 8.23312311 26.35931785 10.46102322 24 14 C24.99 14.33 25.98 14.66 27 15 C28.40457737 17.80915474 28.24895157 19.88810534 28 23 C26.22015595 26.1359157 25.47691793 26.84102736 22 28 C20.38486949 28.09278335 18.76622945 28.13068503 17.1484375 28.1328125 C16.21515625 28.13410156 15.281875 28.13539062 14.3203125 28.13671875 C13.34835937 28.13285156 12.37640625 28.12898438 11.375 28.125 C10.3953125 28.12886719 9.415625 28.13273437 8.40625 28.13671875 C7.47554687 28.13542969 6.54484375 28.13414063 5.5859375 28.1328125 C4.30275635 28.13112061 4.30275635 28.13112061 2.99365234 28.12939453 C1 28 1 28 0 27 C-0.08758003 25.00035018 -0.10696576 22.9976389 -0.09765625 20.99609375 C-0.09443359 19.78115234 -0.09121094 18.56621094 -0.08789062 17.31445312 C-0.07951172 16.03505859 -0.07113281 14.75566406 -0.0625 13.4375 C-0.05798828 12.15423828 -0.05347656 10.87097656 -0.04882812 9.54882812 C-0.03699545 6.36583978 -0.02051068 3.18294238 0 0 Z " fill="#AAA695" transform="translate(778,41)"/>
<path d="M0 0 C2.31 0 4.62 0 7 0 C8.98 5.61 10.96 11.22 13 17 C13.33 11.39 13.66 5.78 14 0 C16.31 0 18.62 0 21 0 C21 12.54 21 25.08 21 38 C18.36 38 15.72 38 13 38 C11.02 32.06 9.04 26.12 7 20 C6.67 26.27 6.34 32.54 6 39 C3.03 39.495 3.03 39.495 0 40 C0 26.8 0 13.6 0 0 Z " fill="#A8A493" transform="translate(136,35)"/>
<path d="M0 0 C3.5475 -0.04125 7.095 -0.0825 10.75 -0.125 C11.86213867 -0.14320801 12.97427734 -0.16141602 14.12011719 -0.18017578 C15.00344727 -0.1851709 15.88677734 -0.19016602 16.796875 -0.1953125 C17.69760742 -0.20578613 18.59833984 -0.21625977 19.52636719 -0.22705078 C22.17627581 0.01618007 23.76840556 0.57060042 26 2 C27.16343227 4.32686453 27.19895988 5.84721413 27.25 8.4375 C27.27578125 9.21996094 27.3015625 10.00242187 27.328125 10.80859375 C26.92393381 13.50801348 26.15326907 14.37459544 24 16 C23.34 16 22.68 16 22 16 C22.433125 16.69867188 22.86625 17.39734375 23.3125 18.1171875 C23.869375 19.02726562 24.42625 19.93734375 25 20.875 C25.556875 21.77992187 26.11375 22.68484375 26.6875 23.6171875 C28 26 28 26 28 28 C25.69 28 23.38 28 21 28 C20.16151196 26.54462432 19.32936066 25.08559627 18.5 23.625 C18.0359375 22.81289063 17.571875 22.00078125 17.09375 21.1640625 C16 19 16 19 16 17 C12.04 17.495 12.04 17.495 8 18 C7.67 21.3 7.34 24.6 7 28 C4.69 28 2.38 28 0 28 C0 18.76 0 9.52 0 0 Z " fill="#A9A594" transform="translate(853,41)"/>
<path d="M0 0 C2.31 0 4.62 0 7 0 C7.66 2.64 8.32 5.28 9 8 C9.66 8 10.32 8 11 8 C11.309375 6.865625 11.61875 5.73125 11.9375 4.5625 C13 1 13 1 14 0 C15.99958364 -0.04080783 18.00045254 -0.04254356 20 0 C19.56459142 1.33401777 19.12652414 2.66716774 18.6875 4 C18.419375 4.825 18.15125 5.65 17.875 6.5 C17 9 17 9 16.0625 11.0625 C12.6373859 18.64668123 15.38553232 24.43900884 18.1875 31.875 C18.55230469 32.77992187 18.91710937 33.68484375 19.29296875 34.6171875 C20 37 20 37 19 40 C16.1875 39.5625 16.1875 39.5625 13 38 C11.55562735 35.10596396 10.73692916 32.14164535 10 29 C7.3534665 31.6465335 6.40058003 34.56221264 5 38 C3.02 38 1.04 38 -1 38 C-0.37778193 34.03516857 0.91215969 30.86705943 2.625 27.25 C6.83181949 17.25118267 3.58167293 9.84543582 0 0 Z " fill="#ABA796" transform="translate(263,35)"/>
<path d="M0 0 C1.98 0 3.96 0 6 0 C6.02505615 0.62044189 6.0501123 1.24088379 6.07592773 1.88012695 C6.19196721 4.69112397 6.31465759 7.50179241 6.4375 10.3125 C6.47681641 11.28896484 6.51613281 12.26542969 6.55664062 13.27148438 C6.59853516 14.20927734 6.64042969 15.14707031 6.68359375 16.11328125 C6.72025146 16.97735596 6.75690918 17.84143066 6.79467773 18.73168945 C6.92747354 21.1647826 6.92747354 21.1647826 8 24 C9.60379341 24.05416188 11.20811406 24.09286638 12.8125 24.125 C13.70582031 24.14820312 14.59914063 24.17140625 15.51953125 24.1953125 C18.25402714 24.18285827 18.25402714 24.18285827 21 22 C21.50843062 19.68246412 21.50843062 19.68246412 21.51171875 16.9921875 C21.54716797 16.00605469 21.58261719 15.01992188 21.61914062 14.00390625 C21.64169922 12.97136719 21.66425781 11.93882813 21.6875 10.875 C21.72166016 9.83472656 21.75582031 8.79445313 21.79101562 7.72265625 C21.87367058 5.14854493 21.94276155 2.57478171 22 0 C24.31 0 26.62 0 29 0 C29.11689626 3.37470504 29.18747934 6.7488843 29.25 10.125 C29.30027344 11.55199219 29.30027344 11.55199219 29.3515625 13.0078125 C29.43254901 18.83884135 29.11764464 22.49362667 25 27 C21.54726889 29.60654756 17.77803051 29.3664752 13.5625 29.4375 C12.26441406 29.47746094 10.96632813 29.51742187 9.62890625 29.55859375 C5.16529429 28.87151462 3.78693117 27.46412939 1 24 C-0.25248502 21.49502996 -0.11374406 19.79146726 -0.09765625 16.9921875 C-0.09443359 16.00605469 -0.09121094 15.01992188 -0.08789062 14.00390625 C-0.07951172 12.97136719 -0.07113281 11.93882813 -0.0625 10.875 C-0.05798828 9.83472656 -0.05347656 8.79445313 -0.04882812 7.72265625 C-0.03701952 5.14838038 -0.02055075 2.57421854 0 0 Z " fill="#A8A594" transform="translate(738,40)"/>
<path d="M0 0 C4.95 0 9.9 0 15 0 C15 1.98 15 3.96 15 6 C12.36 6 9.72 6 7 6 C7 8.97 7 11.94 7 15 C9.31 15 11.62 15 14 15 C14 16.98 14 18.96 14 21 C11.69 21 9.38 21 7 21 C7 23.97 7 26.94 7 30 C9.64 30 12.28 30 15 30 C15 31.98 15 33.96 15 36 C9.75103182 37.07671142 5.60877798 37 0 37 C0 24.79 0 12.58 0 0 Z " fill="#A7A392" transform="translate(163,35)"/>
<path d="M0 0 C2.7654203 0.1929363 4.32795051 0.78924845 6.6875 2.1875 C7.3475 1.5275 8.0075 0.8675 8.6875 0.1875 C11.48787679 -0.17152267 13.02897953 -0.30494601 15.3293457 1.4152832 C17.08490202 3.70605856 17.0351723 4.99264972 16.98046875 7.85546875 C16.97080078 8.74814453 16.96113281 9.64082031 16.95117188 10.56054688 C16.92603516 11.48931641 16.90089844 12.41808594 16.875 13.375 C16.85469727 14.78555664 16.85469727 14.78555664 16.83398438 16.22460938 C16.79863096 18.54615038 16.74928674 20.86653653 16.6875 23.1875 C15.0375 23.1875 13.3875 23.1875 11.6875 23.1875 C11.3575 17.2475 11.0275 11.3075 10.6875 5.1875 C8.7075 6.1775 8.7075 6.1775 6.6875 7.1875 C6.22161453 10.01267725 5.99134499 12.47829561 5.9375 15.3125 C5.89302734 16.44365234 5.89302734 16.44365234 5.84765625 17.59765625 C5.77692068 19.46035953 5.72995017 21.32393755 5.6875 23.1875 C4.0375 23.1875 2.3875 23.1875 0.6875 23.1875 C0.3575 17.9075 0.0275 12.6275 -0.3125 7.1875 C-1.6325 7.1875 -2.9525 7.1875 -4.3125 7.1875 C-4.6425 12.4675 -4.9725 17.7475 -5.3125 23.1875 C-6.9625 23.1875 -8.6125 23.1875 -10.3125 23.1875 C-10.3125 15.9275 -10.3125 8.6675 -10.3125 1.1875 C-7.97916667 1.1875 -5.64583333 1.1875 -3.3125 1.1875 C-2.3125 0.1875 -2.3125 0.1875 0 0 Z " fill="#B0AC9B" transform="translate(1049.3125,42.8125)"/>
<path d="M0 0 C7.92 0 15.84 0 24 0 C23.67 1.32 23.34 2.64 23 4 C17.06 4 11.12 4 5 4 C5 6.64 5 9.28 5 12 C9.62 12 14.24 12 19 12 C18.67 13.32 18.34 14.64 18 16 C14.37 16.33 10.74 16.66 7 17 C6.67 18.98 6.34 20.96 6 23 C12.27 23 18.54 23 25 23 C24.01 25.475 24.01 25.475 23 28 C15.41 28 7.82 28 0 28 C0 18.76 0 9.52 0 0 Z " fill="#ACA897" transform="translate(818,41)"/>
<path d="M0 0 C6.27 0 12.54 0 19 0 C19 6.27 19 12.54 19 19 C12.73 19 6.46 19 0 19 C0 12.73 0 6.46 0 0 Z " fill="#B0AC9A" transform="translate(352,56)"/>
<path d="M0 0 C6.27 0 12.54 0 19 0 C19 6.27 19 12.54 19 19 C12.73 19 6.46 19 0 19 C0 12.73 0 6.46 0 0 Z " fill="#B0AC9A" transform="translate(331,56)"/>
<path d="M0 0 C6.27 0 12.54 0 19 0 C19 6.27 19 12.54 19 19 C12.73 19 6.46 19 0 19 C0 12.73 0 6.46 0 0 Z " fill="#B0AC9A" transform="translate(352,35)"/>
<path d="M0 0 C6.27 0 12.54 0 19 0 C19 6.27 19 12.54 19 19 C12.73 19 6.46 19 0 19 C0 12.73 0 6.46 0 0 Z " fill="#B0AC9A" transform="translate(331,35)"/>
<path d="M0 0 C1.98 0 3.96 0 6 0 C6.81604999 1.9151579 7.62770632 3.83218834 8.4375 5.75 C9.11619141 7.35101563 9.11619141 7.35101563 9.80859375 8.984375 C10.73979553 11.3413841 11.4784072 13.52992835 12 16 C12.66 16 13.32 16 14 16 C14.11214844 15.29488281 14.22429687 14.58976562 14.33984375 13.86328125 C15.06314908 10.72610488 16.19457691 8.09872094 17.5625 5.1875 C18.01753906 4.21167969 18.47257812 3.23585937 18.94140625 2.23046875 C19.29074219 1.49441406 19.64007813 0.75835937 20 0 C21.98 0 23.96 0 26 0 C26 7.92 26 15.84 26 24 C24.68 24 23.36 24 22 24 C21.67 18.72 21.34 13.44 21 8 C19.18813622 12.88514031 19.18813622 12.88514031 17.41113281 17.78295898 C16.703125 19.62109375 16.703125 19.62109375 15 23 C13.68 23.33 12.36 23.66 11 24 C9.02 19.05 7.04 14.1 5 9 C4.67 13.95 4.34 18.9 4 24 C2.68 24 1.36 24 0 24 C0 16.08 0 8.16 0 0 Z " fill="#A8A493" transform="translate(383,43)"/>
<path d="M0 0 C2.69990662 1.79993774 4.5418865 3.083773 6 6 C6.58676714 11.13002129 7.11396418 16.34459651 3.9375 20.6875 C1 23 1 23 -2.5 23.6875 C-6.81290923 22.8403214 -8.27021358 21.3720891 -11 18 C-12.73348019 14.53303962 -12.47699379 10.79051063 -12 7 C-8.82615554 1.07549034 -6.73787226 -0.66057571 0 0 Z " fill="#ABA796" transform="translate(1122,43)"/>
<path d="M0 0 C3.34588123 0.72310254 4.83038067 1.92708577 7.1328125 4.4609375 C7.87582187 7.3745111 7.92295152 10.2145656 7.9453125 13.2109375 C7.97044922 14.00371094 7.99558594 14.79648437 8.02148438 15.61328125 C8.0801798 17.56196945 8.1094023 19.51150609 8.1328125 21.4609375 C6.4828125 22.1209375 4.8328125 22.7809375 3.1328125 23.4609375 C3.1328125 22.8009375 3.1328125 22.1409375 3.1328125 21.4609375 C2.4315625 21.7909375 1.7303125 22.1209375 1.0078125 22.4609375 C-2.20878904 23.57975543 -4.48549405 23.82851288 -7.8671875 23.4609375 C-9.7421875 22.3984375 -9.7421875 22.3984375 -10.8671875 20.4609375 C-11.3671875 17.0234375 -11.3671875 17.0234375 -10.8671875 13.4609375 C-8.8046875 11.0234375 -8.8046875 11.0234375 -5.8671875 9.4609375 C-2.0546875 9.2109375 -2.0546875 9.2109375 1.1328125 9.4609375 C0.8028125 8.1409375 0.4728125 6.8209375 0.1328125 5.4609375 C-1.1871875 5.4609375 -2.5071875 5.4609375 -3.8671875 5.4609375 C-4.1971875 6.1209375 -4.5271875 6.7809375 -4.8671875 7.4609375 C-6.5171875 7.4609375 -8.1671875 7.4609375 -9.8671875 7.4609375 C-9.5546875 5.0859375 -9.5546875 5.0859375 -8.8671875 2.4609375 C-5.67500612 0.33281658 -3.76299318 0.1623252 0 0 Z " fill="#AAA695" transform="translate(1080.8671875,42.5390625)"/>
<path d="M0 0 C0.76183594 -0.00773437 1.52367187 -0.01546875 2.30859375 -0.0234375 C5.27889799 0.50164228 6.52424277 1.12433016 8.5625 3.375 C9.02364965 6.00000569 9.25735309 8.24298835 9.3125 10.875 C9.34214844 11.55175781 9.37179687 12.22851562 9.40234375 12.92578125 C9.51904304 15.74323557 9.5625 18.55524261 9.5625 21.375 C7.75 22.4375 7.75 22.4375 5.5625 23.375 C4.5725 23.045 3.5825 22.715 2.5625 22.375 C1.9025 22.705 1.2425 23.035 0.5625 23.375 C-2.875 23.6875 -2.875 23.6875 -6.4375 23.375 C-8.77749465 21.33694014 -9.30805929 19.93590973 -10 16.9375 C-9.29423829 13.72236333 -7.75761375 12.28258666 -5.171875 10.3125 C-2.5634334 8.90253157 -0.32452103 9.03130702 2.5625 9.375 C2.2325 8.055 1.9025 6.735 1.5625 5.375 C-1.19391416 5.87256092 -1.19391416 5.87256092 -3.4375 7.375 C-5.10367115 7.41563832 -6.77138095 7.417721 -8.4375 7.375 C-7.54157333 2.17862533 -5.33433546 -0.05397304 0 0 Z " fill="#ABA896" transform="translate(1025.4375,42.625)"/>
<path d="M0 0 C5.94 0 11.88 0 18 0 C18 1.98 18 3.96 18 6 C16.35 6 14.7 6 13 6 C13 15.57 13 25.14 13 35 C10.69 35 8.38 35 6 35 C6 25.43 6 15.86 6 6 C4.02 6 2.04 6 0 6 C0 4.02 0 2.04 0 0 Z " fill="#A6A292" transform="translate(184,35)"/>
<path d="M0 0 C4.95 0 9.9 0 15 0 C15 1.98 15 3.96 15 6 C12.03 6 9.06 6 6 6 C6 9.3 6 12.6 6 16 C8.31 16 10.62 16 13 16 C13 17.65 13 19.3 13 21 C10.69 21 8.38 21 6 21 C6 25.62 6 30.24 6 35 C4.02 35 2.04 35 0 35 C0 23.45 0 11.9 0 0 Z " fill="#ADA998" transform="translate(209,35)"/>
<path d="M0 0 C2.875 2 2.875 2 5 4 C5.66 2.68 6.32 1.36 7 0 C8.5843317 0.08768248 10.16753567 0.19587329 11.75 0.3125 C13.07257812 0.39951172 13.07257812 0.39951172 14.421875 0.48828125 C17.32303774 1.0641181 18.79225607 2.07596148 21 4 C19.625 5.5 19.625 5.5 18 7 C17.34 7 16.68 7 16 7 C16 6.34 16 5.68 16 5 C13.69 4.67 11.38 4.34 9 4 C8.87753906 5.0828125 8.75507812 6.165625 8.62890625 7.28125 C7.94824026 12.72657793 6.93911632 18.10613683 5.9375 23.5 C5.75123047 24.51320313 5.56496094 25.52640625 5.37304688 26.5703125 C4.91738299 29.04725462 4.4596565 31.52379626 4 34 C2.09397257 30.6906337 1.48318069 27.68562872 0.9296875 23.921875 C0.75566406 22.76171875 0.58164062 21.6015625 0.40234375 20.40625 C0.22832031 19.1996875 0.05429687 17.993125 -0.125 16.75 C-0.30675781 15.52796875 -0.48851562 14.3059375 -0.67578125 13.046875 C-1.12328757 10.03209557 -1.56444866 7.01652585 -2 4 C-4.31 4.33 -6.62 4.66 -9 5 C-9 5.66 -9 6.32 -9 7 C-10.32 6.34 -11.64 5.68 -13 5 C-13 4.01 -13 3.02 -13 2 C-8.55907228 0.57890313 -4.70690546 -0.61394419 0 0 Z " fill="#ADA998" transform="translate(945,39)"/>
<path d="M0 0 C1.46759766 0.61488281 1.46759766 0.61488281 2.96484375 1.2421875 C4.28890661 1.78683747 5.61313436 2.3310867 6.9375 2.875 C7.8975293 3.27912109 7.8975293 3.27912109 8.87695312 3.69140625 C17.34488723 7.14598633 25.24996686 8.344983 34.375 8.25 C35.75655273 8.24202393 35.75655273 8.24202393 37.16601562 8.23388672 C44.52999625 8.13110324 51.71482616 7.76827957 58.59375 4.9296875 C61 4 61 4 64 4 C64 4.66 64 5.32 64 6 C49.0166158 13.83395215 36.9193125 17.84200126 19.95703125 13.05078125 C12.7041856 10.47348207 5.7586564 7.1733846 0 2 C0 1.34 0 0.68 0 0 Z " fill="#A4A090" transform="translate(1035,68)"/>
<path d="M0 0 C0 1.32 0 2.64 0 4 C-1.32 4 -2.64 4 -4 4 C-4 5.65 -4 7.3 -4 9 C-2.02 9 -0.04 9 2 9 C2 7.35 2 5.7 2 4 C3.32 4 4.64 4 6 4 C6 5.65 6 7.3 6 9 C7.32 9 8.64 9 10 9 C10 9.99 10 10.98 10 12 C8.68 12 7.36 12 6 12 C6.33 15.3 6.66 18.6 7 22 C7.99 22.33 8.98 22.66 10 23 C10 23.99 10 24.98 10 26 C7.125 26.125 7.125 26.125 4 26 C2 24 2 24 1.8046875 21.1796875 C1.82789063 20.08914062 1.85109375 18.99859375 1.875 17.875 C1.89304687 16.77929688 1.91109375 15.68359375 1.9296875 14.5546875 C1.95289063 13.71164063 1.97609375 12.86859375 2 12 C0.02 12 -1.96 12 -4 12 C-4 16.62 -4 21.24 -4 26 C-5.65 26 -7.3 26 -9 26 C-9 21.38 -9 16.76 -9 12 C-9.66 12 -10.32 12 -11 12 C-11 11.01 -11 10.02 -11 9 C-10.01 9 -9.02 9 -8 9 C-8.061875 8.071875 -8.12375 7.14375 -8.1875 6.1875 C-8 3 -8 3 -6.8125 1.125 C-4.43963721 -0.34781139 -2.74086056 -0.22223194 0 0 Z " fill="#A3A08F" transform="translate(508,41)"/>
<path d="M0 0 C3.97245401 0.70936679 5.67231707 1.79731707 8.5 4.625 C9.92662219 7.47824437 9.81033868 9.45954549 9.5 12.625 C7.70006226 15.32490662 6.416227 17.1668865 3.5 18.625 C-0.83327174 19.11555907 -2.82000344 19.10244439 -6.4375 16.5625 C-8.5 13.625 -8.5 13.625 -9.125 10.1875 C-8.12924321 4.51168632 -6.04810877 1.08001942 0 0 Z " fill="#A39F8F" transform="translate(454.5,48.375)"/>
<path d="M0 0 C1.98 0 3.96 0 6 0 C6 9.9 6 19.8 6 30 C8.97 30 11.94 30 15 30 C15 31.98 15 33.96 15 36 C10.05 35.67 5.1 35.34 0 35 C0 23.45 0 11.9 0 0 Z " fill="#B1AD9B" transform="translate(230,35)"/>
<path d="M0 0 C2.72853838 2.74053195 2.99706102 3.9768555 3.5 7.9375 C3.35672652 11.27016563 2.94083006 12.08606537 0.9375 15 C-2.76272533 17.51930235 -4.6031656 17.7066341 -9 17 C-11.9375 15.5625 -11.9375 15.5625 -14 13 C-14.8899474 8.7454269 -14.68593705 5.27833723 -12.625 1.4375 C-8.65231697 -0.7380169 -4.41652926 -1.00275122 0 0 Z " fill="#A9A594" transform="translate(493,50)"/>
<path d="M0 0 C3.5 0.3125 3.5 0.3125 7 1 C8.20029908 3.40059817 8.11459743 4.89360649 8.09765625 7.5703125 C8.09443359 8.46621094 8.09121094 9.36210938 8.08789062 10.28515625 C8.07951172 11.22230469 8.07113281 12.15945312 8.0625 13.125 C8.05798828 14.06988281 8.05347656 15.01476563 8.04882812 15.98828125 C8.03702357 18.32558387 8.02055759 20.66276061 8 23 C6.35 23 4.7 23 3 23 C2.67 17.06 2.34 11.12 2 5 C0.02 5.99 0.02 5.99 -2 7 C-2.46588547 9.82517725 -2.69615501 12.29079561 -2.75 15.125 C-2.77964844 15.87910156 -2.80929687 16.63320313 -2.83984375 17.41015625 C-2.91057932 19.27285953 -2.95754983 21.13643755 -3 23 C-4.65 23 -6.3 23 -8 23 C-8 15.74 -8 8.48 -8 1 C-5.66666667 1 -3.33333333 1 -1 1 C-0.67 0.67 -0.34 0.34 0 0 Z " fill="#B1AD9B" transform="translate(1140,43)"/>
<path d="M0 0 C1.2065625 0.0309375 1.2065625 0.0309375 2.4375 0.0625 C2.7675 1.3825 3.0975 2.7025 3.4375 4.0625 C2.1175 4.0625 0.7975 4.0625 -0.5625 4.0625 C-0.5625 4.7225 -0.5625 5.3825 -0.5625 6.0625 C1.4175 6.0625 3.3975 6.0625 5.4375 6.0625 C6.4275 8.7025 7.4175 11.3425 8.4375 14.0625 C9.7575 11.4225 11.0775 8.7825 12.4375 6.0625 C13.7575 6.3925 15.0775 6.7225 16.4375 7.0625 C15.48582179 9.69008953 14.52652879 12.31444493 13.5625 14.9375 C13.29308594 15.68386719 13.02367187 16.43023437 12.74609375 17.19921875 C10.6640625 22.8359375 10.6640625 22.8359375 8.4375 25.0625 C5.3125 25.1875 5.3125 25.1875 2.4375 25.0625 C2.4375 24.0725 2.4375 23.0825 2.4375 22.0625 C3.7575 22.0625 5.0775 22.0625 6.4375 22.0625 C5.84772253 20.2452669 5.24021547 18.43377957 4.625 16.625 C4.28855469 15.61566406 3.95210937 14.60632813 3.60546875 13.56640625 C3.22003906 12.74011719 2.83460937 11.91382813 2.4375 11.0625 C1.4475 10.7325 0.4575 10.4025 -0.5625 10.0625 C-0.5625 13.6925 -0.5625 17.3225 -0.5625 21.0625 C-1.8825 21.0625 -3.2025 21.0625 -4.5625 21.0625 C-4.5625 17.4325 -4.5625 13.8025 -4.5625 10.0625 C-5.2225 10.0625 -5.8825 10.0625 -6.5625 10.0625 C-6.5625 8.7425 -6.5625 7.4225 -6.5625 6.0625 C-5.9025 6.0625 -5.2425 6.0625 -4.5625 6.0625 C-4.418125 5.258125 -4.27375 4.45375 -4.125 3.625 C-3.347189 0.08163876 -3.347189 0.08163876 0 0 Z " fill="#A5A291" transform="translate(1316.5625,42.9375)"/>
<path d="M0 0 C11.44112478 -0.36906854 11.44112478 -0.36906854 13.86328125 1.23046875 C15.29444126 3.45835701 15.40136288 4.8637122 15.375 7.5 C15.38273437 8.2734375 15.39046875 9.046875 15.3984375 9.84375 C14.90346131 12.52244468 14.1965075 13.41670512 12 15 C8.3125 15.1875 8.3125 15.1875 5 15 C4.67 16.65 4.34 18.3 4 20 C2.68 20 1.36 20 0 20 C0 13.4 0 6.8 0 0 Z " fill="#A9A594" transform="translate(1261,49)"/>
<path d="M0 0 C4.62 0 9.24 0 14 0 C15 4 15 4 13.34765625 7.015625 C12.59355469 8.08296875 11.83945313 9.1503125 11.0625 10.25 C10.31097656 11.32765625 9.55945312 12.4053125 8.78515625 13.515625 C8.19605469 14.33546875 7.60695313 15.1553125 7 16 C9.64 16.33 12.28 16.66 15 17 C15 18.65 15 20.3 15 22 C9.72 22 4.44 22 -1 22 C-1 15.92473783 -0.88525868 15.09837754 2.5 10.625 C3.1496875 9.75101563 3.799375 8.87703125 4.46875 7.9765625 C4.9740625 7.32429688 5.479375 6.67203125 6 6 C3.03 5.505 3.03 5.505 0 5 C0 3.35 0 1.7 0 0 Z " fill="#AAA695" transform="translate(1093,43)"/>
<path d="M0 0 C1.98 0 3.96 0 6 0 C6 12.21 6 24.42 6 37 C4.02 37 2.04 37 0 37 C0 24.79 0 12.58 0 0 Z " fill="#B1AD9B" transform="translate(251,35)"/>
<path d="M0 0 C0.99 0 1.98 0 3 0 C3 1.32 3 2.64 3 4 C6.3 4 9.6 4 13 4 C13 8.95 13 13.9 13 19 C3.72265625 19.09765625 3.72265625 19.09765625 1 19 C0 18 0 18 -0.09765625 15.49609375 C-0.08605469 14.48675781 -0.07445312 13.47742188 -0.0625 12.4375 C-0.05347656 11.42558594 -0.04445313 10.41367187 -0.03515625 9.37109375 C-0.02355469 8.58863281 -0.01195312 7.80617188 0 7 C-0.66 7 -1.32 7 -2 7 C-2 6.01 -2 5.02 -2 4 C-1.34 4 -0.68 4 0 4 C0 2.68 0 1.36 0 0 Z " fill="#3B3834" transform="translate(1296,45)"/>
<path d="M0 0 C2.4375 1.5625 2.4375 1.5625 4 4 C4.56288002 7.94016013 4.60396028 10.05782196 2.4375 13.4375 C-0.94217804 15.60396028 -3.05983987 15.56288002 -7 15 C-9.4375 13.4375 -9.4375 13.4375 -11 11 C-11.56288002 7.05983987 -11.60396028 4.94217804 -9.4375 1.5625 C-6.05782196 -0.60396028 -3.94016013 -0.56288002 0 0 Z " fill="#A7A393" transform="translate(1289,49)"/>
<path d="M0 0 C0.99 0.66 1.98 1.32 3 2 C2.67 2.99 2.34 3.98 2 5 C-0.97 4.67 -3.94 4.34 -7 4 C-6.33772394 7.11103016 -6.33772394 7.11103016 -3.96875 8.1328125 C-3.1540625 8.46023437 -2.339375 8.78765625 -1.5 9.125 C2.93582888 10.93582888 2.93582888 10.93582888 4 12 C4.3125 14.375 4.3125 14.375 4 17 C2.21077735 19.16197737 0.84201178 19.89157192 -1.94140625 20.25 C-5.80582909 20.36386881 -7.73982565 20.17344957 -11 18 C-10.505 16.515 -10.505 16.515 -10 15 C-6.7 15.33 -3.4 15.66 0 16 C0 15.01 0 14.02 0 13 C-0.62648438 12.80664062 -1.25296875 12.61328125 -1.8984375 12.4140625 C-2.71570312 12.15367188 -3.53296875 11.89328125 -4.375 11.625 C-5.59316406 11.24214844 -5.59316406 11.24214844 -6.8359375 10.8515625 C-9 10 -9 10 -11 8 C-10.8125 5 -10.8125 5 -10 2 C-6.31282562 -0.45811625 -4.35654296 -0.31118164 0 0 Z " fill="#A8A493" transform="translate(1256,44)"/>
<path d="M0 0 C1.9375 1.75 1.9375 1.75 3 4 C3 5.32 3 6.64 3 8 C1.35 8.33 -0.3 8.66 -2 9 C-0.68 9 0.64 9 2 9 C1.34 10.32 0.68 11.64 0 13 C-6.34507042 13.35915493 -6.34507042 13.35915493 -8.9375 11.9375 C-10.6140629 8.88023824 -10.36528977 6.4093712 -10 3 C-7.7810369 -1.04634448 -4.19567567 -0.52445946 0 0 Z " fill="#9D9A8A" transform="translate(615,51)"/>
<path d="M0 0 C2.12493141 -0.02693575 4.24995912 -0.04636628 6.375 -0.0625 C7.55835938 -0.07410156 8.74171875 -0.08570313 9.9609375 -0.09765625 C13 0 13 0 15 1 C15 3.31 15 5.62 15 8 C12.11584117 9.44207941 9.58278472 9.09394887 6.375 9.0625 C5.18648437 9.05347656 3.99796875 9.04445313 2.7734375 9.03515625 C1.85820313 9.02355469 0.94296875 9.01195312 0 9 C0 6.03 0 3.06 0 0 Z " fill="#1D1B1B" transform="translate(859,45)"/>
<path d="M0 0 C1.32 0 2.64 0 4 0 C4.99 2.31 5.98 4.62 7 7 C7.99 4.69 8.98 2.38 10 0 C10.99 0 11.98 0 13 0 C12.59657725 6.18581556 10.51160866 13.48839134 6 18 C4.33382885 18.04063832 2.66611905 18.042721 1 18 C1 16.68 1 15.36 1 14 C2.32 14 3.64 14 5 14 C4.6390625 13.24074219 4.278125 12.48148438 3.90625 11.69921875 C3.4421875 10.70535156 2.978125 9.71148437 2.5 8.6875 C2.0359375 7.70136719 1.571875 6.71523438 1.09375 5.69921875 C0 3 0 3 0 0 Z " fill="#A19D8D" transform="translate(656,51)"/>
<path d="M0 0 C1.17691406 0.00257812 2.35382812 0.00515625 3.56640625 0.0078125 C5.32791016 0.00394531 5.32791016 0.00394531 7.125 0 C10.12890625 0.1328125 10.12890625 0.1328125 12.12890625 1.1328125 C12.25390625 3.5078125 12.25390625 3.5078125 12.12890625 6.1328125 C10.12890625 8.1328125 10.12890625 8.1328125 6.87109375 8.328125 C5.59492187 8.30492188 4.31875 8.28171875 3.00390625 8.2578125 C1.08191406 8.23074219 1.08191406 8.23074219 -0.87890625 8.203125 C-2.36003906 8.16832031 -2.36003906 8.16832031 -3.87109375 8.1328125 C-3.91351098 5.79986475 -3.91202312 3.46578683 -3.87109375 1.1328125 C-2.87109375 0.1328125 -2.87109375 0.1328125 0 0 Z " fill="#1B1918" transform="translate(787.87109375,56.8671875)"/>
<path d="M0 0 C0 1.32 0 2.64 0 4 C-2.80358505 3.49025726 -5.41345539 2.86355972 -8.125 1.96875 C-12.53765256 0.86558686 -16.42158716 0.7743884 -20.9375 0.875 C-21.71673828 0.88402344 -22.49597656 0.89304687 -23.29882812 0.90234375 C-25.19935447 0.92566309 -27.09972008 0.96152414 -29 1 C-29 -0.32 -29 -1.64 -29 -3 C-19.64286275 -5.74299059 -8.6754327 -4.33771635 0 0 Z " fill="#171515" transform="translate(1232,48)"/>
<path d="M0 0 C0 0.99 0 1.98 0 3 C-1.98 3 -3.96 3 -6 3 C-6 3.99 -6 4.98 -6 6 C-5.21625 6.28875 -4.4325 6.5775 -3.625 6.875 C-1 8 -1 8 1 10 C0.67028521 13.29714793 0.3773161 14.6226839 -2 17 C-4.68839385 17.26991906 -7.29141936 17.08737357 -10 17 C-9.67 15.68 -9.34 14.36 -9 13 C-7.35 13 -5.7 13 -4 13 C-4 12.34 -4 11.68 -4 11 C-5.63631892 9.95107762 -7.30485863 8.95093297 -9 8 C-10 7 -10 7 -10.25 4.625 C-10 2 -10 2 -8.9375 0.125 C-5.88430685 -1.64782183 -3.33588292 -0.69235306 0 0 Z " fill="#A9A594" transform="translate(476,50)"/>
<path d="M0 0 C-0.33 1.32 -0.66 2.64 -1 4 C-1.969375 3.979375 -2.93875 3.95875 -3.9375 3.9375 C-6.87465895 3.64381501 -6.87465895 3.64381501 -8 5 C-8.16666667 8.5 -8.16666667 8.5 -8 12 C-6.81575674 13.41577477 -6.81575674 13.41577477 -3.4375 13.0625 C-1.7359375 13.0315625 -1.7359375 13.0315625 0 13 C0 13.99 0 14.98 0 16 C-3.09173752 17.54586876 -5.59429552 17.29359521 -9 17 C-11.4375 15.5625 -11.4375 15.5625 -13 13 C-13.8208235 9.17424871 -14.06011831 5.65947848 -11.89453125 2.26953125 C-7.99726564 -1.46055943 -4.97733345 -1.2941067 0 0 Z " fill="#A7A392" transform="translate(433,50)"/>
<path d="M0 0 C2.14576637 -0.02685938 4.29162645 -0.04633088 6.4375 -0.0625 C7.63246094 -0.07410156 8.82742188 -0.08570313 10.05859375 -0.09765625 C13 0 13 0 14 1 C13.71269945 3.33944736 13.38063221 5.6739143 13 8 C8.71 8 4.42 8 0 8 C0 5.36 0 2.72 0 0 Z " fill="#242220" transform="translate(784,45)"/>
<path d="M0 0 C0 0.99 0 1.98 0 3 C-6.75 2.125 -6.75 2.125 -9 1 C-11.71760108 0.92818179 -14.40859388 0.90700494 -17.125 0.9375 C-18.25615234 0.94426758 -18.25615234 0.94426758 -19.41015625 0.95117188 C-21.27347127 0.96296501 -23.13674555 0.98090058 -25 1 C-25 -0.32 -25 -1.64 -25 -3 C-15.94941117 -5.53581418 -8.47243648 -3.60803378 0 0 Z " fill="#211F1D" transform="translate(1229,55)"/>
<path d="M0 0 C1.60875 -0.04125 3.2175 -0.0825 4.875 -0.125 C5.77992188 -0.14820313 6.68484375 -0.17140625 7.6171875 -0.1953125 C10 0 10 0 12 2 C12.1953125 4.6015625 12.1953125 4.6015625 12.125 7.625 C12.10695313 8.62789062 12.08890625 9.63078125 12.0703125 10.6640625 C12.03550781 11.82035156 12.03550781 11.82035156 12 13 C11.01 13 10.02 13 9 13 C8.67 10.03 8.34 7.06 8 4 C6.35 3.67 4.7 3.34 3 3 C3 6.3 3 9.6 3 13 C2.01 13 1.02 13 0 13 C0 8.71 0 4.42 0 0 Z " fill="#B1AD9B" transform="translate(590,51)"/>
<path d="M0 0 C1.32 0 2.64 0 4 0 C4 1.32 4 2.64 4 4 C2.35 4.66 0.7 5.32 -1 6 C-1.33 9.96 -1.66 13.92 -2 18 C-3.32 18 -4.64 18 -6 18 C-6 12.39 -6 6.78 -6 1 C-4.35 1 -2.7 1 -1 1 C-0.67 0.67 -0.34 0.34 0 0 Z " fill="#AAA695" transform="translate(442,49)"/>
<path d="M0 0 C1.32 0 2.64 0 4 0 C4 0.99 4 1.98 4 3 C5.32 3 6.64 3 8 3 C8 3.99 8 4.98 8 6 C6.68 6 5.36 6 4 6 C4 8.31 4 10.62 4 13 C5.32 13 6.64 13 8 13 C8 13.99 8 14.98 8 16 C5.125 16.125 5.125 16.125 2 16 C0 14 0 14 -0.1953125 12.0546875 C-0.09765625 9.02734375 -0.09765625 9.02734375 0 6 C-0.66 6 -1.32 6 -2 6 C-2 5.01 -2 4.02 -2 3 C-1.34 3 -0.68 3 0 3 C0 2.01 0 1.02 0 0 Z " fill="#A6A292" transform="translate(621,48)"/>
<path d="M0 0 C1.33223009 0.33771567 2.66528865 0.67222797 4 1 C4 1.99 4 2.98 4 4 C2.83597656 3.67515625 2.83597656 3.67515625 1.6484375 3.34375 C-11.15730674 0.04298537 -22.34865042 0.10727705 -35 4 C-34.67 3.01 -34.34 2.02 -34 1 C-23.59765599 -3.92742611 -10.86728827 -3.07906501 0 0 Z " fill="#A09C8D" transform="translate(964,37)"/>
<path d="M0 0 C0.99 0 1.98 0 3 0 C3 1.32 3 2.64 3 4 C4.32 4 5.64 4 7 4 C7 4.99 7 5.98 7 7 C5.68 7 4.36 7 3 7 C3.33 9.64 3.66 12.28 4 15 C4.99 15 5.98 15 7 15 C7 16.32 7 17.64 7 19 C5.00045254 19.04254356 2.99958364 19.04080783 1 19 C0 18 0 18 -0.09765625 15.49609375 C-0.08605469 14.48675781 -0.07445312 13.47742188 -0.0625 12.4375 C-0.05347656 11.42558594 -0.04445313 10.41367187 -0.03515625 9.37109375 C-0.02355469 8.58863281 -0.01195312 7.80617188 0 7 C-0.66 7 -1.32 7 -2 7 C-2 6.01 -2 5.02 -2 4 C-1.34 4 -0.68 4 0 4 C0 2.68 0 1.36 0 0 Z " fill="#B0AC9A" transform="translate(1296,45)"/>
<path d="M0 0 C2.9375 0.1875 2.9375 0.1875 3.9375 1.1875 C4.21064815 6.92361111 4.21064815 6.92361111 3.9375 9.1875 C1.9375 11.1875 1.9375 11.1875 -0.5625 11.5 C-1.8 11.3453125 -1.8 11.3453125 -3.0625 11.1875 C-5.36413882 7.73504176 -5.40740322 6.24011287 -5.0625 2.1875 C-3.0625 0.1875 -3.0625 0.1875 0 0 Z " fill="#181616" transform="translate(455.0625,52.8125)"/>
<path d="M0 0 C2.5 0.25 2.5 0.25 4.5 2.25 C4.75 5.75 4.75 5.75 4.5 9.25 C2.5 11.25 2.5 11.25 0 11.5625 C-1.2375 11.4078125 -1.2375 11.4078125 -2.5 11.25 C-4.80163882 7.79754176 -4.84490322 6.30261287 -4.5 2.25 C-2.5 0.25 -2.5 0.25 0 0 Z " fill="#151313" transform="translate(487.5,52.75)"/>
<path d="M0 0 C1.65 0 3.3 0 5 0 C5 5.61 5 11.22 5 17 C3.35 17 1.7 17 0 17 C0 11.39 0 5.78 0 0 Z " fill="#908D7F" transform="translate(412,50)"/>
<path d="M0 0 C1.98 0 3.96 0 6 0 C6 0.66 6 1.32 6 2 C5.01 2.33 4.02 2.66 3 3 C2.67 3.66 2.34 4.32 2 5 C3.32 5 4.64 5 6 5 C6 5.99 6 6.98 6 8 C4.68 8 3.36 8 2 8 C2 11.3 2 14.6 2 18 C1.01 18 0.02 18 -1 18 C-1 14.7 -1 11.4 -1 8 C-1.99 8 -2.98 8 -4 8 C-4 7.01 -4 6.02 -4 5 C-3.01 5 -2.02 5 -1 5 C-0.67 3.35 -0.34 1.7 0 0 Z " fill="#AEAA98" transform="translate(649,46)"/>
<path d="M0 0 C1.32 0.33 2.64 0.66 4 1 C4 5.29 4 9.58 4 14 C2.68 14.33 1.36 14.66 0 15 C-2 13 -2 13 -2.265625 10.46875 C-2.26046875 9.4890625 -2.2553125 8.509375 -2.25 7.5 C-2.25515625 6.5203125 -2.2603125 5.540625 -2.265625 4.53125 C-2 2 -2 2 0 0 Z " fill="#171515" transform="translate(1118,47)"/>
<path d="M0 0 C0.66 0.66 1.32 1.32 2 2 C1.34 2.33 0.68 2.66 0 3 C-1.33333333 2.33333333 -2.66666667 1.66666667 -4 1 C-6.58532701 0.54935368 -6.58532701 0.54935368 -9.25 0.375 C-10.14203125 0.30023438 -11.0340625 0.22546875 -11.953125 0.1484375 C-12.96632813 0.07496094 -12.96632813 0.07496094 -14 0 C-14.99 1.485 -14.99 1.485 -16 3 C-19.875 1.125 -19.875 1.125 -21 0 C-22.60773906 0.0644267 -24.21283223 0.20168314 -25.8125 0.375 C-26.68519531 0.46523438 -27.55789063 0.55546875 -28.45703125 0.6484375 C-30.70260073 0.95888489 -32.81681337 1.39949645 -35 2 C-35 1.34 -35 0.68 -35 0 C-23.65355732 -4.39217136 -11.36481567 -4.58801818 0 0 Z " fill="#312F2C" transform="translate(966,40)"/>
<path d="M0 0 C5.61 0 11.22 0 17 0 C17.33 1.32 17.66 2.64 18 4 C11.73 4 5.46 4 -1 4 C-0.67 2.68 -0.34 1.36 0 0 Z " fill="#9B9788" transform="translate(673,55)"/>
<path d="M0 0 C5.94 0 11.88 0 18 0 C18 1.32 18 2.64 18 4 C12.06 4 6.12 4 0 4 C0 2.68 0 1.36 0 0 Z " fill="#9E9A8B" transform="translate(566,55)"/>
<path d="M0 0 C1.75 0.94921875 1.75 0.94921875 2.75 3.94921875 C1.87601563 3.73265625 1.87601563 3.73265625 0.984375 3.51171875 C-5.83340445 1.96807057 -12.27694354 1.73355721 -19.25 1.94921875 C-19.25 0.95921875 -19.25 -0.03078125 -19.25 -1.05078125 C-12.63796602 -3.25479258 -6.4938558 -2.13079643 0 0 Z " fill="#252321" transform="translate(1224.25,60.05078125)"/>
<path d="M0 0 C2.3828125 -0.29296875 2.3828125 -0.29296875 5.125 -0.1875 C6.03507812 -0.16042969 6.94515625 -0.13335937 7.8828125 -0.10546875 C8.58148437 -0.07066406 9.28015625 -0.03585938 10 0 C11.11974683 3.46103566 11.07897784 4.80443583 9.6875 8.25 C8 11 8 11 6 12 C6.33 9.03 6.66 6.06 7 3 C4.03 3 1.06 3 -2 3 C-1.34 2.01 -0.68 1.02 0 0 Z " fill="#9E9A8A" transform="translate(1094,67)"/>
<path d="M0 0 C1.32 0 2.64 0 4 0 C4 4.95 4 9.9 4 15 C2.68 15 1.36 15 0 15 C0 10.05 0 5.1 0 0 Z " fill="#A19E8D" transform="translate(1305,49)"/>
<path d="M0 0 C2.625 0.375 2.625 0.375 5 1 C5.625 3.3125 5.625 3.3125 6 6 C5.01 7.485 5.01 7.485 4 9 C-0.875 8.125 -0.875 8.125 -2 7 C-2.1875 4.5625 -2.1875 4.5625 -2 2 C-1.34 1.34 -0.68 0.68 0 0 Z " fill="#201E1D" transform="translate(1267,52)"/>
<path d="M0 0 C0.99 0 1.98 0 3 0 C3 6.27 3 12.54 3 19 C2.01 19 1.02 19 0 19 C0 12.73 0 6.46 0 0 Z " fill="#AEAA99" transform="translate(632,45)"/>
<path d="M0 0 C1.32 0 2.64 0 4 0 C4 4.62 4 9.24 4 14 C2.68 14 1.36 14 0 14 C0 9.38 0 4.76 0 0 Z " fill="#A39F8F" transform="translate(594,69)"/>
<path d="M0 0 C2.93453261 0.36681658 3.86437246 0.86437246 6 3 C5.625 5.625 5.625 5.625 5 8 C0.25 9.125 0.25 9.125 -2 8 C-2.125 5.125 -2.125 5.125 -2 2 C-1.34 1.34 -0.68 0.68 0 0 Z " fill="#1A1818" transform="translate(1284,52)"/>
<path d="M0 0 C1.32 0 2.64 0 4 0 C4 4.62 4 9.24 4 14 C2.68 14 1.36 14 0 14 C0 9.38 0 4.76 0 0 Z " fill="#A39F8F" transform="translate(594,32)"/>
<path d="M0 0 C1.32 0 2.64 0 4 0 C4 4.29 4 8.58 4 13 C2.68 13 1.36 13 0 13 C0 8.71 0 4.42 0 0 Z " fill="#A19D8D" transform="translate(639,51)"/>
<path d="M0 0 C3.48539917 0.64544429 6.02819057 2.10134397 9 4 C8.67 4.99 8.34 5.98 8 7 C7.21625 6.95875 6.4325 6.9175 5.625 6.875 C2.83883881 6.71271266 2.83883881 6.71271266 1 9 C-1.09230769 4.56923077 -1.09230769 4.56923077 -0.625 1.6875 C-0.41875 1.130625 -0.2125 0.57375 0 0 Z " fill="#201E1D" transform="translate(464,57)"/>
<path d="M0 0 C-0.29899215 3.58790575 -0.76986601 4.78166776 -3.4375 7.3125 C-6 9 -6 9 -8 9 C-7.51219512 3.51219512 -7.51219512 3.51219512 -5.125 1.125 C-3 0 -3 0 0 0 Z " fill="#ABA796" transform="translate(80,32)"/>
<path d="M0 0 C1.32 0 2.64 0 4 0 C4.125 2.375 4.125 2.375 4 5 C3.34 5.66 2.68 6.32 2 7 C-0.125 6.625 -0.125 6.625 -2 6 C-1.125 1.125 -1.125 1.125 0 0 Z " fill="#1D1B1A" transform="translate(1024,55)"/>
<path d="M0 0 C1.32 0 2.64 0 4 0 C3.67 1.98 3.34 3.96 3 6 C1.68 6.33 0.36 6.66 -1 7 C-1.625 4.625 -1.625 4.625 -2 2 C-1.34 1.34 -0.68 0.68 0 0 Z " fill="#1A1818" transform="translate(1078,55)"/>
<path d="M0 0 C1.65 0.33 3.3 0.66 5 1 C5 2.32 5 3.64 5 5 C-1.625 5.25 -1.625 5.25 -5 3 C-3.68 3 -2.36 3 -1 3 C-0.67 2.01 -0.34 1.02 0 0 Z " fill="#22201F" transform="translate(1077,47)"/>
<path d="M0 0 C0.33 0 0.66 0 1 0 C1.33 2.97 1.66 5.94 2 9 C0.02 9 -1.96 9 -4 9 C-4 7.35 -4 5.7 -4 4 C-2.68 4 -1.36 4 0 4 C0 2.68 0 1.36 0 0 Z " fill="#1F1D1C" transform="translate(508,41)"/>
<path d="M0 0 C2.0625 0.4375 2.0625 0.4375 4 1 C4 2.32 4 3.64 4 5 C1.69 5.33 -0.62 5.66 -3 6 C-3 5.34 -3 4.68 -3 4 C-3.99 3.67 -4.98 3.34 -6 3 C-5.195625 2.690625 -4.39125 2.38125 -3.5625 2.0625 C-1.10919595 1.23664655 -1.10919595 1.23664655 0 0 Z " fill="#1A1818" transform="translate(1024,47)"/>
<path d="M0 0 C1.32 0 2.64 0 4 0 C4 2.31 4 4.62 4 7 C2.68 7.33 1.36 7.66 0 8 C0 5.36 0 2.72 0 0 Z " fill="#121011" transform="translate(1300,53)"/>
<path d="M0 0 C0.33 0.99 0.66 1.98 1 3 C1.66 3 2.32 3 3 3 C3 5.97 3 8.94 3 12 C2.01 11.67 1.02 11.34 0 11 C-1.125 3.375 -1.125 3.375 0 0 Z " fill="#373531" transform="translate(1293,49)"/>
<path d="M0 0 C0.99 0 1.98 0 3 0 C2.75 1.875 2.75 1.875 2 4 C-0.0625 5.25 -0.0625 5.25 -2 6 C-2 2 -2 2 0 0 Z " fill="#AFAB9A" transform="translate(584,67)"/>
<path d="M0 0 C1.9375 0.75 1.9375 0.75 4 2 C4.75 4.125 4.75 4.125 5 6 C3.125 5.75 3.125 5.75 1 5 C-0.25 2.9375 -0.25 2.9375 -1 1 C-0.67 0.67 -0.34 0.34 0 0 Z " fill="#AFAB9A" transform="translate(582,42)"/>
<path d="M0 0 C-0.33 1.32 -0.66 2.64 -1 4 C-2.9375 3.6875 -2.9375 3.6875 -5 3 C-5.33 2.01 -5.66 1.02 -6 0 C-3.50907189 -1.24546405 -2.58919267 -0.7767578 0 0 Z " fill="#413F3A" transform="translate(1338,50)"/>
<path d="M0 0 C1.65 0 3.3 0 5 0 C4.67 1.32 4.34 2.64 4 4 C2.68 3.67 1.36 3.34 0 3 C0 2.01 0 1.02 0 0 Z " fill="#9D9A8A" transform="translate(412,43)"/>
<path d="M0 0 C1.32 0 2.64 0 4 0 C3.67 1.32 3.34 2.64 3 4 C1.68 3.67 0.36 3.34 -1 3 C-0.67 2.01 -0.34 1.02 0 0 Z " fill="#A29E8E" transform="translate(1305,43)"/>
</svg>
